<svg xmlns="http://www.w3.org/2000/svg" viewBox="0 0 512 512" role="img" aria-label="AI Board">
  <defs>
    <linearGradient id="bg" x1="88" y1="56" x2="424" y2="456" gradientUnits="userSpaceOnUse">
      <stop offset="0" stop-color="#38bdf8"/>
      <stop offset="0.48" stop-color="#2563eb"/>
      <stop offset="1" stop-color="#172554"/>
    </linearGradient>
    <linearGradient id="hub" x1="224" y1="214" x2="298" y2="306" gradientUnits="userSpaceOnUse">
      <stop offset="0" stop-color="#fcd34d"/>
      <stop offset="1" stop-color="#f59e0b"/>
    </linearGradient>
    <filter id="shadow" x="76" y="84" width="360" height="360" color-interpolation-filters="sRGB" filterUnits="userSpaceOnUse">
      <feDropShadow dx="0" dy="18" stdDeviation="20" flood-color="#0f172a" flood-opacity="0.28"/>
    </filter>
  </defs>

  <rect width="512" height="512" rx="112" fill="url(#bg)"/>

  <g filter="url(#shadow)">
    <rect x="112" y="112" width="288" height="288" rx="56" fill="#f8fbff"/>
    <path d="M168 172h176M168 340h176M172 168v176M340 168v176" stroke="#dbeafe" stroke-width="14" stroke-linecap="round"/>

    <path d="M190 196l66 60 66-60M190 316l66-60 66 60M178 256h156" stroke="#1d4ed8" stroke-width="18" stroke-linecap="round" stroke-linejoin="round"/>

    <circle cx="178" cy="196" r="31" fill="#2563eb"/>
    <circle cx="334" cy="196" r="31" fill="#2563eb"/>
    <circle cx="178" cy="316" r="31" fill="#2563eb"/>
    <circle cx="334" cy="316" r="31" fill="#2563eb"/>
    <circle cx="256" cy="256" r="49" fill="url(#hub)"/>

    <path d="M234 256l16 16 32-36" fill="none" stroke="#fff7ed" stroke-width="18" stroke-linecap="round" stroke-linejoin="round"/>
    <circle cx="178" cy="196" r="12" fill="#eff6ff"/>
    <circle cx="334" cy="196" r="12" fill="#eff6ff"/>
    <circle cx="178" cy="316" r="12" fill="#eff6ff"/>
    <circle cx="334" cy="316" r="12" fill="#eff6ff"/>
  </g>
</svg>
